<svg xmlns="http://www.w3.org/2000/svg" xmlns:xlink="http://www.w3.org/1999/xlink" version="1.1" x="0px" y="0px" viewBox="0 0 100 125" enable-background="new 0 0 100 100" xml:space="preserve"><g><path fill="#000000" d="M91.813,58.801c-1.81-1.615-4.104-2.929-5.89-3.823c-1.628-0.81-2.833-1.274-2.856-1.284   c-2.775-0.978-3.767-1.973-4.108-2.636l-0.14-0.4c-0.039-0.141-0.073-0.274-0.106-0.401l-0.337-1.896l-0.009-0.091   c0.917-1.173,1.665-2.521,2.164-3.9l0.069-0.106c0.791-0.79,1.219-2.792,1.221-2.811c0.581-1.628,0.364-2.337,0.185-2.622   l-0.074-0.116l0.043-0.13c0.059-0.176,1.422-4.35-0.46-7.531l-0.033-0.084c-0.006-0.028-0.709-2.968-4.158-4.27   c-1.3-0.788-3.473-1.177-5.44-1.177c-0.058,0-0.114,0.001-0.171,0.002c-0.058,0-0.114-0.002-0.173-0.002   c-1.967,0-4.141,0.389-5.439,1.177c-3.449,1.302-4.153,4.241-4.159,4.27l-0.032,0.084c-1.883,3.181-0.52,7.355-0.461,7.531   l0.043,0.13l-0.073,0.116c-0.181,0.285-0.397,0.994,0.184,2.622c0.003,0.02,0.431,2.021,1.222,2.811l0.069,0.106   c0.498,1.379,1.246,2.727,2.163,3.9l-0.008,0.091l-0.337,1.896c-0.033,0.127-0.067,0.26-0.107,0.401l-0.139,0.4   c-0.343,0.663-1.333,1.658-4.109,2.636c-0.023,0.01-1.229,0.475-2.855,1.284c-0.813,0.407-1.732,0.905-2.663,1.476   c1.325,0.848,2.494,1.719,3.494,2.605c0.765,0.611,4.873,4.312,4.501,12.988c-0.023,0.647-0.071,1.273-0.143,1.912   c2.598,0.311,5.484,0.519,8.563,0.519c0.151,0,0.307-0.004,0.459-0.005c0.152,0.001,0.308,0.005,0.459,0.005   c12.182,0,21.37-3.252,21.457-3.284c1.06-0.329,1.236-0.771,1.236-1.32c0.063-0.544,0.102-1.061,0.12-1.561   C95.277,61.42,91.853,58.829,91.813,58.801z"/><path fill="#000000" d="M57.073,60.562c-2.172-1.938-4.925-3.515-7.069-4.589c-1.953-0.971-3.399-1.529-3.427-1.541   c-3.331-1.172-4.521-2.367-4.931-3.163l-0.167-0.479c-0.047-0.169-0.089-0.328-0.128-0.48l-0.405-2.275l-0.01-0.109   c1.101-1.408,1.999-3.025,2.597-4.68l0.083-0.127c0.949-0.949,1.463-3.35,1.466-3.374c0.697-1.954,0.437-2.805,0.221-3.146   l-0.088-0.14l0.051-0.156c0.071-0.211,1.707-5.22-0.551-9.037l-0.041-0.101c-0.007-0.034-0.851-3.562-4.99-5.124   c-1.559-0.945-4.167-1.413-6.528-1.413c-0.07,0-0.137,0.001-0.206,0.002c-0.069,0-0.137-0.002-0.207-0.002   c-2.36,0-4.969,0.466-6.527,1.413c-4.14,1.563-4.984,5.089-4.991,5.124l-0.04,0.101c-2.259,3.817-0.623,8.826-0.552,9.037   l0.051,0.156l-0.088,0.14c-0.216,0.341-0.477,1.192,0.221,3.146c0.002,0.023,0.516,2.425,1.465,3.374l0.084,0.127   c0.598,1.655,1.496,3.271,2.596,4.68l-0.01,0.109l-0.405,2.275c-0.04,0.153-0.081,0.311-0.128,0.48l-0.167,0.479   c-0.411,0.796-1.6,1.991-4.931,3.163c-0.028,0.012-1.475,0.57-3.427,1.541c-2.144,1.074-4.896,2.65-7.068,4.589   C8.78,60.595,4.67,63.704,5.021,71.975c0.023,0.602,0.068,1.22,0.144,1.873c0,0.66,0.211,1.188,1.484,1.585   c0.104,0.04,11.131,3.94,25.748,3.94c0.182,0,0.367-0.005,0.551-0.006c0.183,0.001,0.369,0.006,0.551,0.006   c14.618,0,25.644-3.901,25.748-3.94c1.271-0.396,1.483-0.925,1.483-1.585c0.077-0.653,0.122-1.271,0.145-1.873   C61.229,63.704,57.119,60.595,57.073,60.562z"/></g><text x="0" y="115" fill="#000000" font-size="5px" font-weight="bold" font-family="'Helvetica Neue', Helvetica, Arial-Unicode, Arial, Sans-serif">Created by Wilson Joseph</text><text x="0" y="120" fill="#000000" font-size="5px" font-weight="bold" font-family="'Helvetica Neue', Helvetica, Arial-Unicode, Arial, Sans-serif">from the Noun Project</text></svg>