<?xml version="1.0" encoding="UTF-8" standalone="no"?>
<svg
   xmlns:dc="http://purl.org/dc/elements/1.1/"
   xmlns:cc="http://creativecommons.org/ns#"
   xmlns:rdf="http://www.w3.org/1999/02/22-rdf-syntax-ns#"
   xmlns:svg="http://www.w3.org/2000/svg"
   xmlns="http://www.w3.org/2000/svg"
   xmlns:sodipodi="http://sodipodi.sourceforge.net/DTD/sodipodi-0.dtd"
   xmlns:inkscape="http://www.inkscape.org/namespaces/inkscape"
   version="1.1"
   x="0px"
   y="0px"
   viewBox="0 0 90.00293 58.744999"
   enable-background="new 0 0 100 100"
   xml:space="preserve"
   id="svg3344"
   inkscape:version="0.91 r13725"
   sodipodi:docname="icon.svg"
   width="90.00293"
   height="58.744999"><sodipodi:namedview
     pagecolor="#ffffff"
     bordercolor="#666666"
     borderopacity="1"
     objecttolerance="10"
     gridtolerance="10"
     guidetolerance="10"
     inkscape:pageopacity="0"
     inkscape:pageshadow="2"
     inkscape:window-width="1536"
     inkscape:window-height="801"
     id="namedview3356"
     showgrid="false"
     fit-margin-top="0"
     fit-margin-left="0"
     fit-margin-right="0"
     fit-margin-bottom="0"
     inkscape:zoom="5.056"
     inkscape:cx="45.000264"
     inkscape:cy="16.873"
     inkscape:window-x="-8"
     inkscape:window-y="-8"
     inkscape:window-maximized="1"
     inkscape:current-layer="svg3344"
     borderlayer="false"
     showborder="false"><inkscape:grid
       type="xygrid"
       id="grid3355" /></sodipodi:namedview><metadata
     id="metadata3360"><rdf:RDF><cc:Work
         rdf:about=""><dc:format>image/svg+xml</dc:format><dc:type
           rdf:resource="http://purl.org/dc/dcmitype/StillImage" /><dc:title></dc:title></cc:Work></rdf:RDF></metadata><defs
     id="defs3358" /><g
     transform="translate(-4.9997362,-20.628)"
     id="g3346"><path
       style="fill:#ffffff"
       inkscape:connector-curvature="0"
       id="path3348"
       d="m 91.813,58.801 c -1.81,-1.615 -4.104,-2.929 -5.89,-3.823 -1.628,-0.81 -2.833,-1.274 -2.856,-1.284 -2.775,-0.978 -3.767,-1.973 -4.108,-2.636 l -0.14,-0.4 C 78.78,50.517 78.746,50.384 78.713,50.257 L 78.376,48.361 78.367,48.27 c 0.917,-1.173 1.665,-2.521 2.164,-3.9 L 80.6,44.264 c 0.791,-0.79 1.219,-2.792 1.221,-2.811 0.581,-1.628 0.364,-2.337 0.185,-2.622 l -0.074,-0.116 0.043,-0.13 c 0.059,-0.176 1.422,-4.35 -0.46,-7.531 L 81.482,30.97 c -0.006,-0.028 -0.709,-2.968 -4.158,-4.27 -1.3,-0.788 -3.473,-1.177 -5.44,-1.177 -0.058,0 -0.114,0.001 -0.171,0.002 -0.058,0 -0.114,-0.002 -0.173,-0.002 -1.967,0 -4.141,0.389 -5.439,1.177 -3.449,1.302 -4.153,4.241 -4.159,4.27 l -0.032,0.084 c -1.883,3.181 -0.52,7.355 -0.461,7.531 l 0.043,0.13 -0.073,0.116 c -0.181,0.285 -0.397,0.994 0.184,2.622 0.003,0.02 0.431,2.021 1.222,2.811 l 0.069,0.106 c 0.498,1.379 1.246,2.727 2.163,3.9 l -0.008,0.091 -0.337,1.896 c -0.033,0.127 -0.067,0.26 -0.107,0.401 l -0.139,0.4 c -0.343,0.663 -1.333,1.658 -4.109,2.636 -0.023,0.01 -1.229,0.475 -2.855,1.284 -0.813,0.407 -1.732,0.905 -2.663,1.476 1.325,0.848 2.494,1.719 3.494,2.605 0.765,0.611 4.873,4.312 4.501,12.988 -0.023,0.647 -0.071,1.273 -0.143,1.912 2.598,0.311 5.484,0.519 8.563,0.519 0.151,0 0.307,-0.004 0.459,-0.005 0.152,0.001 0.308,0.005 0.459,0.005 12.182,0 21.37,-3.252 21.457,-3.284 1.06,-0.329 1.236,-0.771 1.236,-1.32 0.063,-0.544 0.102,-1.061 0.12,-1.561 0.292,-6.893 -3.132,-9.484 -3.172,-9.512 z" /><path
       style="fill:#ffffff"
       inkscape:connector-curvature="0"
       id="path3350"
       d="M 57.073,60.562 C 54.901,58.624 52.148,57.047 50.004,55.973 48.051,55.002 46.605,54.444 46.577,54.432 43.246,53.26 42.056,52.065 41.646,51.269 L 41.479,50.79 C 41.432,50.621 41.39,50.462 41.351,50.31 l -0.405,-2.275 -0.01,-0.109 c 1.101,-1.408 1.999,-3.025 2.597,-4.68 l 0.083,-0.127 c 0.949,-0.949 1.463,-3.35 1.466,-3.374 0.697,-1.954 0.437,-2.805 0.221,-3.146 l -0.088,-0.14 0.051,-0.156 c 0.071,-0.211 1.707,-5.22 -0.551,-9.037 l -0.041,-0.101 c -0.007,-0.034 -0.851,-3.562 -4.99,-5.124 -1.559,-0.945 -4.167,-1.413 -6.528,-1.413 -0.07,0 -0.137,0.001 -0.206,0.002 -0.069,0 -0.137,-0.002 -0.207,-0.002 -2.36,0 -4.969,0.466 -6.527,1.413 -4.14,1.563 -4.984,5.089 -4.991,5.124 l -0.04,0.101 c -2.259,3.817 -0.623,8.826 -0.552,9.037 l 0.051,0.156 -0.088,0.14 c -0.216,0.341 -0.477,1.192 0.221,3.146 0.002,0.023 0.516,2.425 1.465,3.374 l 0.084,0.127 c 0.598,1.655 1.496,3.271 2.596,4.68 l -0.01,0.109 -0.405,2.275 c -0.04,0.153 -0.081,0.311 -0.128,0.48 l -0.167,0.479 c -0.411,0.796 -1.6,1.991 -4.931,3.163 -0.028,0.012 -1.475,0.57 -3.427,1.541 -2.144,1.074 -4.896,2.65 -7.068,4.589 -0.046,0.033 -4.156,3.142 -3.805,11.413 0.023,0.602 0.068,1.22 0.144,1.873 0,0.66 0.211,1.188 1.484,1.585 0.104,0.04 11.131,3.94 25.748,3.94 0.182,0 0.367,-0.005 0.551,-0.006 0.183,10e-4 0.369,0.006 0.551,0.006 14.618,0 25.644,-3.901 25.748,-3.94 1.271,-0.396 1.483,-0.925 1.483,-1.585 0.077,-0.653 0.122,-1.271 0.145,-1.873 0.354,-8.271 -3.756,-11.38 -3.802,-11.413 z" /></g></svg>